# xmcd
#
# Track frame offsets: 
#        150
#        12239
#        30325
#        45515
#        59702
#        71198
#        81686
#        97476
#        110973
#        134098
#        144964
#        158215
#
# Disc length: 2388 seconds
#
# Revision: 0
# Processed by: cddbd v1.5.2PL0 Copyright (c) Steve Scherf et al.
# Submitted via: ExactAudioCopy v1.3
#
DISCID=ba09520c
DTITLE=Abalon Dots - Softgrass Music
DYEAR=2003
DGENRE=Bluegrass
TTITLE0=Min Syrra
TTITLE1=Darcey Farrow
TTITLE2=Tills Jag Dur
TTITLE3=No More
TTITLE4=Third Leg Blues
TTITLE5=Here There And Everywhere
TTITLE6=I Wandered By A Brookside
TTITLE7=Golden Fish
TTITLE8=Water is Wide
TTITLE9=Go My Way
TTITLE10=Mina Futter
TTITLE11=Fields of Gold
EXTD=
EXTT0=
EXTT1=
EXTT2=
EXTT3=
EXTT4=
EXTT5=
EXTT6=
EXTT7=
EXTT8=
EXTT9=
EXTT10=
EXTT11=
PLAYORDER=
